<svg xmlns="http://www.w3.org/2000/svg" width="256" height="256" viewBox="0 0 256 256"><ellipse cx="128" cy="218" rx="78" ry="19" fill="#20382a" opacity=".24"/><path d="m79 92-7-56 53 34m52 22 7-56-53 34" fill="#737b80" stroke="#3f484d" stroke-width="9" stroke-linejoin="round"/><path d="m86 72 30 20-33 5m87-25-30 20 33 5" fill="#c28a7b"/><ellipse cx="128" cy="148" rx="68" ry="71" fill="#747c81" stroke="#3f484d" stroke-width="9"/><path d="M76 164q52-39 104 0v30q-52 36-104 0z" fill="#d9d5c9" stroke="#3f484d" stroke-width="7"/><circle cx="103" cy="133" r="8" fill="#f2cf66"/><circle cx="153" cy="133" r="8" fill="#f2cf66"/><path d="m118 166 10-8 10 8-10 11z" fill="#252526"/><path d="M128 177v10m-18 0q18 12 36 0" fill="none" stroke="#413533" stroke-width="5" stroke-linecap="round"/></svg>