<svg xmlns="http://www.w3.org/2000/svg" width="256" height="256" viewBox="0 0 256 256">
<polygon points="114.19,83.56 112.09,83.85 114.19,84.32" fill="#41525c"/>
<polygon points="112.09,83.85 114.19,83.56 112.09,83.10" fill="#41525c"/>
<polygon points="114.98,83.07 114.19,83.56 114.19,84.32" fill="#3d4d56"/>
<polygon points="113.07,82.44 112.09,83.10 114.19,83.56" fill="#465864"/>
<polygon points="114.19,83.56 114.98,83.07 113.07,82.44" fill="#465864"/>
<polygon points="113.07,82.44 112.09,83.85 112.09,83.10" fill="#3d4d57"/>
<polygon points="114.19,84.32 114.98,84.35 114.98,83.07" fill="#3d4d56"/>
<polygon points="113.07,83.72 114.19,84.32 112.09,83.85" fill="#475964"/>
<polygon points="114.19,84.32 113.07,83.72 114.98,84.35" fill="#465964"/>
<polygon points="112.09,83.85 113.07,82.44 113.07,83.72" fill="#3d4d57"/>
<polygon points="115.78,82.34 114.98,83.07 114.98,84.35" fill="#3d4d56"/>
<polygon points="114.05,81.53 113.07,82.44 114.98,83.07" fill="#455863"/>
<polygon points="114.98,83.07 115.78,82.34 114.05,81.53" fill="#455863"/>
<polygon points="117.11,81.55 114.05,81.53 115.78,82.34" fill="#cd7a00"/>
<polygon points="114.98,84.35 115.78,84.13 115.78,82.34" fill="#3d4d56"/>
<polygon points="115.78,82.34 117.11,85.31 117.11,81.55" fill="#e98b00"/>
<polygon points="114.05,81.53 113.07,83.72 113.07,82.44" fill="#3d4d57"/>
<polygon points="114.05,81.53 117.11,81.55 113.50,79.87" fill="#cd7a00"/>
<polygon points="114.05,83.33 114.98,84.35 113.07,83.72" fill="#465964"/>
<polygon points="117.11,85.31 115.78,82.34 115.78,84.13" fill="#e98b00"/>
<polygon points="114.98,84.35 114.05,83.33 115.78,84.13" fill="#465964"/>
<polygon points="113.07,83.72 114.05,81.53 114.05,83.33" fill="#3d4d57"/>
<polygon points="113.50,79.87 114.05,83.33 114.05,81.53" fill="#d98200"/>
<polygon points="115.78,84.13 113.50,83.62 117.11,85.31" fill="#f49100"/>
<polygon points="113.50,83.62 115.78,84.13 114.05,83.33" fill="#f49100"/>
<polygon points="114.05,83.33 113.50,79.87 113.50,83.62" fill="#d98200"/>
<polygon points="123.15,74.04 117.11,81.55 117.11,85.31" fill="#d98200"/>
<polygon points="118.08,74.97 113.50,79.87 117.11,81.55" fill="#f99500"/>
<polygon points="118.08,74.97 113.50,83.62 113.50,79.87" fill="#d98100"/>
<polygon points="118.08,77.29 117.11,85.31 113.50,83.62" fill="#f79300"/>
<polygon points="117.11,81.55 123.15,74.04 118.08,74.97" fill="#f99400"/>
<polygon points="102.09,77.34 100.24,76.60 100.24,77.12" fill="#40515b"/>
<polygon points="100.24,76.60 99.39,75.97 100.24,77.12" fill="#3c4c56"/>
<polygon points="100.24,76.60 102.09,77.34 102.09,76.46" fill="#40515b"/>
<polygon points="117.11,85.31 123.15,78.36 123.15,74.04" fill="#d98200"/>
<polygon points="99.39,75.97 100.24,76.60 99.39,75.45" fill="#3c4c56"/>
<polygon points="100.24,76.60 102.09,76.46 101.02,75.37" fill="#455863"/>
<polygon points="101.02,75.37 99.39,75.45 100.24,76.60" fill="#455762"/>
<polygon points="103.94,75.99 105.27,78.62 105.27,75.70" fill="#e58800"/>
<polygon points="100.24,77.12 101.02,76.25 102.09,77.34" fill="#455763"/>
<polygon points="117.11,85.31 118.08,77.29 123.15,78.36" fill="#f59200"/>
<polygon points="103.94,77.22 102.09,76.46 102.09,77.34" fill="#40515b"/>
<polygon points="101.02,76.25 100.24,77.12 99.39,75.97" fill="#455762"/>
<polygon points="102.09,76.46 103.94,77.22 103.94,75.99" fill="#40515b"/>
<polygon points="113.50,83.62 118.08,74.97 118.08,77.29" fill="#d98100"/>
<polygon points="105.27,75.70 102.64,74.97 103.94,75.99" fill="#d37e00"/>
<polygon points="102.09,76.46 103.94,75.99 102.64,74.97" fill="#455762"/>
<polygon points="101.02,76.25 99.39,75.97 99.39,75.45" fill="#40515b"/>
<polygon points="105.27,78.62 103.94,75.99 103.94,77.22" fill="#e58800"/>
<polygon points="102.64,74.97 101.02,75.37 102.09,76.46" fill="#455762"/>
<polygon points="99.39,75.45 101.02,75.37 101.02,76.25" fill="#40515b"/>
<polygon points="102.64,74.97 105.27,75.70 102.22,73.29" fill="#d37e00"/>
<polygon points="102.09,77.34 102.64,76.20 103.94,77.22" fill="#465863"/>
<polygon points="102.64,76.20 102.09,77.34 101.02,76.25" fill="#455863"/>
<polygon points="116.24,76.35 105.27,75.70 105.27,78.62" fill="#e88a00"/>
<polygon points="102.64,76.20 101.02,76.25 101.02,75.37" fill="#40515b"/>
<polygon points="101.02,75.37 102.64,74.97 102.64,76.20" fill="#40515b"/>
<polygon points="103.94,77.22 102.22,76.21 105.27,78.62" fill="#f08f00"/>
<polygon points="118.64,72.79 118.08,74.97 123.15,74.04" fill="#e88a00"/>
<polygon points="102.22,73.29 102.64,76.20 102.64,74.97" fill="#d57f00"/>
<polygon points="105.27,75.70 116.24,76.35 116.24,74.12" fill="#e88a00"/>
<polygon points="102.22,76.21 103.94,77.22 102.64,76.20" fill="#f08f00"/>
<polygon points="123.15,74.04 124.42,72.66 118.64,72.79" fill="#f89400"/>
<polygon points="115.15,70.01 102.22,73.29 105.27,75.70" fill="#f89400"/>
<polygon points="118.64,72.79 118.08,77.29 118.08,74.97" fill="#d57f00"/>
<polygon points="124.42,72.66 123.15,74.04 123.15,78.36" fill="#db8200"/>
<polygon points="102.64,76.20 102.22,73.29 102.22,76.21" fill="#d57f00"/>
<polygon points="105.27,75.70 116.24,74.12 115.15,70.01" fill="#f29000"/>
<polygon points="116.24,74.12 118.64,77.55 118.64,72.79" fill="#e98b00"/>
<polygon points="118.08,77.29 118.64,72.79 118.64,77.55" fill="#d57f00"/>
<polygon points="118.64,77.55 123.15,78.36 118.08,77.29" fill="#fe9700"/>
<polygon points="123.15,78.36 124.42,77.42 124.42,72.66" fill="#db8200"/>
<polygon points="118.64,77.55 116.24,74.12 116.24,76.35" fill="#e98b00"/>
<polygon points="116.24,74.12 118.64,72.79 117.72,69.35" fill="#f29000"/>
<polygon points="117.72,69.35 118.64,72.79 124.42,72.66" fill="#f89400"/>
<polygon points="115.15,74.15 105.27,78.62 102.22,76.21" fill="#f99400"/>
<polygon points="105.27,78.62 115.15,74.15 116.24,76.35" fill="#fc9600"/>
<polygon points="115.15,74.15 102.22,76.21 102.22,73.29" fill="#e88a00"/>
<polygon points="123.15,78.36 118.64,77.55 124.42,77.42" fill="#fc9600"/>
<polygon points="117.72,69.35 124.42,72.66 128.94,70.31" fill="#f89400"/>
<polygon points="117.72,69.35 115.15,70.01 116.24,74.12" fill="#f29000"/>
<polygon points="128.94,74.40 124.42,72.66 124.42,77.42" fill="#e38700"/>
<polygon points="102.22,73.29 115.15,70.01 115.15,74.15" fill="#e88a00"/>
<polygon points="124.42,72.66 128.94,74.40 128.94,70.31" fill="#e38700"/>
<polygon points="116.24,76.35 117.72,74.11 118.64,77.55" fill="#f29000"/>
<polygon points="128.94,70.31 123.99,67.86 117.72,69.35" fill="#f89400"/>
<polygon points="117.72,74.11 116.24,76.35 115.15,74.15" fill="#fc9600"/>
<polygon points="115.15,70.01 117.72,69.35 117.72,74.11" fill="#e88a00"/>
<polygon points="123.99,67.86 128.94,70.31 136.78,67.70" fill="#f89400"/>
<polygon points="124.42,77.42 128.43,72.49 128.94,74.40" fill="#f79300"/>
<polygon points="136.78,70.03 128.94,70.31 128.94,74.40" fill="#e68900"/>
<polygon points="117.72,74.11 115.15,74.15 115.15,70.01" fill="#e88a00"/>
<polygon points="128.94,70.31 136.78,70.03 136.78,67.70" fill="#e68900"/>
<polygon points="128.43,72.49 124.42,77.42 123.50,73.98" fill="#f79300"/>
<polygon points="117.72,69.35 123.99,67.86 123.99,71.95" fill="#e88a00"/>
<polygon points="123.99,71.95 117.72,74.11 117.72,69.35" fill="#e88a00"/>
<polygon points="136.78,70.03 128.94,74.40 128.43,72.49" fill="#f69200"/>
<polygon points="135.60,67.60 136.78,67.70 136.78,70.03" fill="#e18600"/>
<polygon points="127.37,88.28 124.42,77.42 118.64,77.55" fill="#f89400"/>
<polygon points="136.78,67.70 132.54,65.01 123.99,67.86" fill="#f89400"/>
<polygon points="123.99,71.95 123.50,73.98 117.72,74.11" fill="#ee8e00"/>
<polygon points="123.50,73.98 123.99,71.95 128.43,72.49" fill="#ee8e00"/>
<polygon points="136.78,67.70 135.60,67.60 133.72,66.41" fill="#e18600"/>
<polygon points="136.78,70.03 135.60,68.63 135.60,67.60" fill="#e18600"/>
<polygon points="137.80,67.68 135.60,67.60 135.60,68.63" fill="#40515b"/>
<polygon points="133.72,66.41 132.54,65.01 136.78,67.70" fill="#e18600"/>
<polygon points="135.60,67.60 137.80,67.68 137.80,66.65" fill="#40515b"/>
<polygon points="132.54,67.34 123.99,71.95 123.99,67.86" fill="#e68900"/>
<polygon points="132.54,67.34 136.78,70.03 128.43,72.49" fill="#f19000"/>
<polygon points="135.60,67.60 137.80,66.65 136.05,65.42" fill="#455762"/>
<polygon points="135.60,68.63 136.78,70.03 132.54,67.34" fill="#e18600"/>
<polygon points="123.99,67.86 132.54,65.01 132.54,67.34" fill="#e68900"/>
<polygon points="136.05,65.42 133.72,66.41 135.60,67.60" fill="#455762"/>
<polygon points="123.99,71.95 132.54,67.34 128.43,72.49" fill="#ef8e00"/>
<polygon points="140.01,66.00 137.80,66.65 137.80,67.68" fill="#40515b"/>
<polygon points="137.80,66.65 140.01,66.00 140.01,65.39" fill="#40515b"/>
<polygon points="135.60,68.63 136.05,66.45 137.80,67.68" fill="#455762"/>
<polygon points="132.54,65.01 133.72,66.41 133.72,67.44" fill="#e18600"/>
<polygon points="136.05,66.45 135.60,68.63 133.72,67.44" fill="#455762"/>
<polygon points="132.54,67.34 133.72,67.44 135.60,68.63" fill="#e18600"/>
<polygon points="137.80,66.65 140.01,65.39 138.37,64.10" fill="#445661"/>
<polygon points="136.05,66.45 133.72,67.44 133.72,66.41" fill="#40505b"/>
<polygon points="127.88,83.67 118.64,77.55 117.72,74.11" fill="#e98b00"/>
<polygon points="138.37,64.10 136.05,65.42 137.80,66.65" fill="#445661"/>
<polygon points="133.72,66.41 136.05,65.42 136.05,66.45" fill="#40505b"/>
<polygon points="133.72,67.44 132.54,67.34 132.54,65.01" fill="#e18600"/>
<polygon points="137.80,67.68 138.37,64.72 140.01,66.00" fill="#43545f"/>
<polygon points="140.01,65.39 140.01,66.00 138.37,64.72" fill="#3e4e58"/>
<polygon points="133.98,85.52 123.50,73.98 124.42,77.42" fill="#e88a00"/>
<polygon points="138.37,64.72 137.80,67.68 136.05,66.45" fill="#43545f"/>
<polygon points="138.37,64.72 138.37,64.10 140.01,65.39" fill="#3e4e58"/>
<polygon points="138.37,64.72 136.05,66.45 136.05,65.42" fill="#40505b"/>
<polygon points="136.05,65.42 138.37,64.10 138.37,64.72" fill="#40505b"/>
<polygon points="127.88,83.67 117.72,74.11 123.50,73.98" fill="#f89400"/>
<polygon points="124.42,77.42 127.37,88.28 133.47,90.13" fill="#f89400"/>
<polygon points="118.64,77.55 127.88,83.67 127.37,88.28" fill="#d98100"/>
<polygon points="124.42,77.42 133.47,90.13 133.98,85.52" fill="#d98100"/>
<polygon points="123.50,73.98 133.98,85.52 127.88,83.67" fill="#f99400"/>
<polygon points="122.67,95.17 133.47,90.13 127.37,88.28" fill="#ededed"/>
<polygon points="133.47,90.13 122.67,95.17 131.40,97.82" fill="#ededed"/>
<polygon points="123.40,88.57 127.37,88.28 127.88,83.67" fill="#e1e1e1"/>
<polygon points="127.37,88.28 123.40,88.57 122.67,95.17" fill="#e1e1e1"/>
<polygon points="115.57,102.12 131.40,97.82 122.67,95.17" fill="#dfdfdf"/>
<polygon points="132.13,91.22 133.98,85.52 133.47,90.13" fill="#d8d8d8"/>
<polygon points="123.40,88.57 127.88,83.67 133.98,85.52" fill="#f6f6f6"/>
<polygon points="133.47,90.13 131.40,97.82 132.13,91.22" fill="#d8d8d8"/>
<polygon points="115.57,102.12 122.67,95.17 123.40,88.57" fill="#ebebeb"/>
<polygon points="131.40,97.82 115.57,102.12 132.50,107.26" fill="#dfdfdf"/>
<polygon points="132.50,107.26 88.01,130.84 146.16,122.70" fill="#d5d5d5"/>
<polygon points="88.01,130.84 132.50,107.26 115.57,102.12" fill="#dcdcdc"/>
<polygon points="133.98,85.52 132.13,91.22 123.40,88.57" fill="#f6f6f6"/>
<polygon points="123.40,88.57 116.99,89.31 115.57,102.12" fill="#ebebeb"/>
<polygon points="88.01,130.84 115.57,102.12 116.99,89.31" fill="#eaeaea"/>
<polygon points="131.40,97.82 132.50,107.26 133.92,94.46" fill="#d0d0d0"/>
<polygon points="133.92,94.46 132.13,91.22 131.40,97.82" fill="#d0d0d0"/>
<polygon points="116.99,89.31 123.40,88.57 132.13,91.22" fill="#fcfcfc"/>
<polygon points="132.13,91.22 133.92,94.46 116.99,89.31" fill="#fcfcfc"/>
<polygon points="132.50,107.26 146.16,122.70 146.16,86.12" fill="#ececec"/>
<polygon points="146.16,86.12 146.16,122.70 182.97,126.07" fill="#f0f0f0"/>
<polygon points="88.01,130.84 155.18,197.47 146.16,122.70" fill="#eaeaea"/>
<polygon points="146.16,86.12 133.92,94.46 132.50,107.26" fill="#eaeaea"/>
<polygon points="146.16,122.70 189.25,198.50 182.97,126.07" fill="#e8e8e8"/>
<polygon points="116.99,89.31 76.02,101.17 88.01,130.84" fill="#e9e9e9"/>
<polygon points="76.02,101.17 116.99,89.31 133.92,94.46" fill="#f8f8f8"/>
<polygon points="182.97,126.07 182.97,98.18 146.16,86.12" fill="#f3f3f3"/>
<polygon points="133.92,94.46 146.16,86.12 76.02,101.17" fill="#fcfcfc"/>
<polygon points="189.25,198.50 146.16,122.70 155.18,197.47" fill="#eaeaea"/>
<polygon points="140.01,31.68 138.37,32.97 138.37,33.58" fill="#3e4e58"/>
<polygon points="155.18,197.47 88.01,130.84 121.10,196.44" fill="#eaeaea"/>
<polygon points="138.37,32.97 136.05,33.52 138.37,33.58" fill="#40505b"/>
<polygon points="136.05,33.52 138.37,32.97 136.05,32.49" fill="#40505b"/>
<polygon points="138.37,33.58 140.01,32.29 140.01,31.68" fill="#3e4e58"/>
<polygon points="137.80,31.25 136.05,32.49 138.37,32.97" fill="#465863"/>
<polygon points="138.37,32.97 140.01,31.68 137.80,31.25" fill="#455863"/>
<polygon points="137.80,32.28 138.37,33.58 136.05,33.52" fill="#465863"/>
<polygon points="138.37,33.58 137.80,32.28 140.01,32.29" fill="#465863"/>
<polygon points="136.05,32.49 133.72,32.72 136.05,33.52" fill="#40505b"/>
<polygon points="132.54,31.79 132.54,34.12 133.72,32.72" fill="#e18600"/>
<polygon points="133.72,32.72 133.72,31.69 132.54,31.79" fill="#e18600"/>
<polygon points="133.72,32.72 136.05,32.49 133.72,31.69" fill="#40505b"/>
<polygon points="140.01,31.68 140.01,32.29 137.80,32.28" fill="#40515b"/>
<polygon points="135.60,30.51 133.72,31.69 136.05,32.49" fill="#455762"/>
<polygon points="137.80,32.28 137.80,31.25 140.01,31.68" fill="#40515b"/>
<polygon points="136.05,32.49 137.80,31.25 135.60,30.51" fill="#455762"/>
<polygon points="136.78,29.11 132.54,31.79 133.72,31.69" fill="#e18600"/>
<polygon points="135.60,31.54 136.05,33.52 133.72,32.72" fill="#455762"/>
<polygon points="136.05,33.52 135.60,31.54 137.80,32.28" fill="#455762"/>
<polygon points="135.60,31.54 133.72,32.72 132.54,34.12" fill="#e18600"/>
<polygon points="123.99,28.94 132.54,31.79 136.78,29.11" fill="#f89400"/>
<polygon points="132.54,31.79 123.99,33.04 132.54,34.12" fill="#e68900"/>
<polygon points="137.80,31.25 137.80,32.28 135.60,31.54" fill="#40515b"/>
<polygon points="133.72,31.69 135.60,30.51 136.78,29.11" fill="#e18600"/>
<polygon points="135.60,31.54 135.60,30.51 137.80,31.25" fill="#40515b"/>
<polygon points="61.73,172.83 121.10,196.44 88.01,130.84" fill="#eeeeee"/>
<polygon points="132.54,34.12 136.78,31.44 135.60,31.54" fill="#e18600"/>
<polygon points="123.99,33.04 132.54,31.79 123.99,28.94" fill="#e68900"/>
<polygon points="135.60,30.51 135.60,31.54 136.78,31.44" fill="#e18600"/>
<polygon points="136.78,31.44 136.78,29.11 135.60,30.51" fill="#e18600"/>
<polygon points="132.54,34.12 128.43,32.50 136.78,31.44" fill="#fb9500"/>
<polygon points="123.99,33.04 128.43,32.50 132.54,34.12" fill="#fd9700"/>
<polygon points="136.78,29.11 128.94,26.49 123.99,28.94" fill="#f89400"/>
<polygon points="117.72,27.45 123.99,28.94 128.94,26.49" fill="#f89400"/>
<polygon points="136.78,29.11 136.78,31.44 128.94,30.59" fill="#e68900"/>
<polygon points="117.72,32.21 123.99,28.94 117.72,27.45" fill="#e88a00"/>
<polygon points="123.99,28.94 117.72,32.21 123.99,33.04" fill="#e88a00"/>
<polygon points="128.94,30.59 128.94,26.49 136.78,29.11" fill="#e68900"/>
<polygon points="76.02,101.17 146.16,86.12 133.92,72.51" fill="#ededed"/>
<polygon points="136.78,31.44 128.43,32.50 128.94,30.59" fill="#f79300"/>
<polygon points="123.99,33.04 123.50,32.34 128.43,32.50" fill="#fd9700"/>
<polygon points="115.15,30.94 117.72,27.45 115.15,26.79" fill="#e88a00"/>
<polygon points="128.94,26.49 124.42,24.14 117.72,27.45" fill="#f89400"/>
<polygon points="123.50,32.34 123.99,33.04 117.72,32.21" fill="#fd9700"/>
<polygon points="117.72,27.45 115.15,30.94 117.72,32.21" fill="#e88a00"/>
<polygon points="116.24,24.64 115.15,26.79 117.72,27.45" fill="#fb9600"/>
<polygon points="55.50,159.22 88.01,130.84 76.02,101.17" fill="#d3d3d3"/>
<polygon points="117.72,27.45 124.42,24.14 118.64,24.01" fill="#f89400"/>
<polygon points="117.72,27.45 118.64,24.01 116.24,24.64" fill="#f59200"/>
<polygon points="124.42,28.90 128.43,32.50 123.50,32.34" fill="#f89400"/>
<polygon points="115.15,26.79 102.22,26.43 115.15,30.94" fill="#e88a00"/>
<polygon points="117.72,32.21 133.98,52.96 123.50,32.34" fill="#d88100"/>
<polygon points="230.29,168.81 182.97,98.18 182.97,126.07" fill="#e2e2e2"/>
<polygon points="128.43,32.50 124.42,28.90 128.94,30.59" fill="#f89400"/>
<polygon points="128.94,26.49 128.94,30.59 124.42,28.90" fill="#e38700"/>
<polygon points="124.42,28.90 124.42,24.14 128.94,26.49" fill="#e38700"/>
<polygon points="116.24,26.86 117.72,32.21 115.15,30.94" fill="#f08f00"/>
<polygon points="102.22,26.43 115.15,26.79 102.22,23.51" fill="#e88a00"/>
<polygon points="133.98,52.96 117.72,32.21 127.88,51.11" fill="#ce7b00"/>
<polygon points="133.92,72.51 116.99,67.37 76.02,101.17" fill="#d5d5d5"/>
<polygon points="105.27,21.10 102.22,23.51 115.15,26.79" fill="#f89400"/>
<polygon points="118.64,28.77 127.88,51.11 117.72,32.21" fill="#e28700"/>
<polygon points="115.15,26.79 116.24,24.64 105.27,21.10" fill="#fb9500"/>
<polygon points="118.64,24.01 124.42,24.14 123.15,22.76" fill="#f89400"/>
<polygon points="124.42,28.90 123.50,32.34 133.98,52.96" fill="#e18600"/>
<polygon points="117.72,32.21 116.24,26.86 118.64,28.77" fill="#ed8d00"/>
<polygon points="133.92,72.51 123.40,59.97 116.99,67.37" fill="#d3d3d3"/>
<polygon points="116.24,26.86 116.24,24.64 118.64,24.01" fill="#e98b00"/>
<polygon points="226.14,192.81 182.97,126.07 189.25,198.50" fill="#dfdfdf"/>
<polygon points="123.15,22.76 118.08,23.79 118.64,24.01" fill="#fe9700"/>
<polygon points="127.88,51.11 132.13,62.62 133.98,52.96" fill="#dadada"/>
<polygon points="132.13,62.62 127.88,51.11 123.40,59.97" fill="#dadada"/>
<polygon points="118.64,24.01 118.64,28.77 116.24,26.86" fill="#e98b00"/>
<polygon points="123.15,27.08 123.15,22.76 124.42,24.14" fill="#db8200"/>
<polygon points="118.08,26.11 118.64,24.01 118.08,23.79" fill="#d57f00"/>
<polygon points="102.64,24.75 102.22,23.51 102.64,23.52" fill="#d57f00"/>
<polygon points="102.22,23.51 102.64,24.75 102.22,26.43" fill="#d57f00"/>
<polygon points="118.64,24.01 118.08,26.11 118.64,28.77" fill="#d57f00"/>
<polygon points="124.42,24.14 124.42,28.90 123.15,27.08" fill="#db8200"/>
<polygon points="115.15,30.94 105.27,24.02 116.24,26.86" fill="#f29000"/>
<polygon points="105.27,24.02 115.15,30.94 102.22,26.43" fill="#f69300"/>
<polygon points="105.27,21.10 102.64,23.52 102.22,23.51" fill="#f08f00"/>
<polygon points="123.40,59.97 133.92,72.51 132.13,62.62" fill="#d3d3d3"/>
<polygon points="127.37,48.81 123.40,59.97 127.88,51.11" fill="#e3e3e3"/>
<polygon points="127.88,51.11 118.64,28.77 127.37,48.81" fill="#e28700"/>
<polygon points="101.02,23.80 102.64,23.52 101.02,22.93" fill="#40515b"/>
<polygon points="88.01,130.84 55.50,159.22 61.73,172.83" fill="#d3d3d3"/>
<polygon points="102.64,23.52 101.02,23.80 102.64,24.75" fill="#40515b"/>
<polygon points="132.50,66.12 133.92,72.51 146.16,86.12" fill="#f5f5f5"/>
<polygon points="116.24,24.64 116.24,26.86 105.27,24.02" fill="#e88a00"/>
<polygon points="102.09,21.84 101.02,22.93 102.64,23.52" fill="#455762"/>
<polygon points="118.64,28.77 123.15,27.08 124.42,28.90" fill="#f19000"/>
<polygon points="103.94,23.73 102.22,26.43 102.64,24.75" fill="#d37e00"/>
<polygon points="102.64,23.52 105.27,21.10 103.94,22.50" fill="#f08f00"/>
<polygon points="99.39,22.52 101.02,22.93 99.39,22.00" fill="#40515b"/>
<polygon points="101.02,22.93 99.39,22.52 101.02,23.80" fill="#40515b"/>
<polygon points="102.64,23.52 103.94,22.50 102.09,21.84" fill="#455762"/>
<polygon points="133.98,52.96 133.47,50.66 124.42,28.90" fill="#e18600"/>
<polygon points="123.15,27.08 118.64,28.77 118.08,26.11" fill="#e08500"/>
<polygon points="105.27,24.02 105.27,21.10 116.24,24.64" fill="#e88a00"/>
<polygon points="133.47,50.66 133.98,52.96 132.13,62.62" fill="#d6d6d6"/>
<polygon points="100.24,20.85 99.39,22.00 101.02,22.93" fill="#445660"/>
<polygon points="102.09,22.72 102.64,24.75 101.02,23.80" fill="#445560"/>
<polygon points="100.24,20.85 99.39,22.52 99.39,22.00" fill="#3c4c56"/>
<polygon points="118.64,28.77 124.42,28.90 133.47,50.66" fill="#d98100"/>
<polygon points="103.94,23.73 103.94,22.50 105.27,21.10" fill="#e58800"/>
<polygon points="101.02,22.93 102.09,21.84 100.24,20.85" fill="#445660"/>
<polygon points="100.24,21.37 101.02,23.80 99.39,22.52" fill="#43545f"/>
<polygon points="102.64,24.75 102.09,22.72 103.94,23.73" fill="#445560"/>
<polygon points="102.22,26.43 103.94,23.73 105.27,24.02" fill="#d37e00"/>
<polygon points="102.09,22.72 102.09,21.84 103.94,22.50" fill="#40515b"/>
<polygon points="103.94,22.50 103.94,23.73 102.09,22.72" fill="#40515b"/>
<polygon points="101.02,23.80 100.24,21.37 102.09,22.72" fill="#43545f"/>
<polygon points="99.39,22.52 100.24,20.85 100.24,21.37" fill="#3c4c56"/>
<polygon points="105.27,21.10 105.27,24.02 103.94,23.73" fill="#e58800"/>
<polygon points="100.24,21.37 100.24,20.85 102.09,21.84" fill="#40515b"/>
<polygon points="102.09,21.84 102.09,22.72 100.24,21.37" fill="#40515b"/>
<polygon points="133.47,50.66 127.37,48.81 118.64,28.77" fill="#d17d00"/>
<polygon points="115.57,60.97 116.99,67.37 123.40,59.97" fill="#f0f0f0"/>
<polygon points="118.08,23.79 123.15,22.76 117.11,15.25" fill="#f49100"/>
<polygon points="123.40,59.97 127.37,48.81 122.67,56.67" fill="#e3e3e3"/>
<polygon points="131.40,59.32 132.13,62.62 133.92,72.51" fill="#d7d7d7"/>
<polygon points="146.16,86.12 182.97,98.18 182.97,75.77" fill="#f7f7f7"/>
<polygon points="118.08,23.79 113.50,20.70 118.08,26.11" fill="#d98100"/>
<polygon points="123.15,22.76 123.15,27.08 117.11,19.01" fill="#d98200"/>
<polygon points="132.13,62.62 131.40,59.32 133.47,50.66" fill="#d6d6d6"/>
<polygon points="118.08,26.11 117.11,19.01 123.15,27.08" fill="#f89400"/>
<polygon points="127.37,48.81 133.47,50.66 131.40,59.32" fill="#e7e7e7"/>
<polygon points="113.50,20.70 118.08,23.79 113.50,16.94" fill="#d98100"/>
<polygon points="117.11,15.25 113.50,16.94 118.08,23.79" fill="#f59200"/>
<polygon points="123.40,59.97 122.67,56.67 115.57,60.97" fill="#f0f0f0"/>
<polygon points="131.40,59.32 122.67,56.67 127.37,48.81" fill="#e7e7e7"/>
<polygon points="117.11,19.01 117.11,15.25 123.15,22.76" fill="#d98200"/>
<polygon points="182.97,126.07 226.14,192.81 226.14,175.05" fill="#e5e5e5"/>
<polygon points="182.97,126.07 226.14,175.05 230.29,168.81" fill="#d8d8d8"/>
<polygon points="117.11,19.01 118.08,26.11 113.50,20.70" fill="#f99400"/>
<polygon points="133.92,72.51 132.50,66.12 131.40,59.32" fill="#d7d7d7"/>
<polygon points="114.05,19.03 113.50,16.94 114.05,17.23" fill="#d98200"/>
<polygon points="115.78,16.43 114.05,17.23 113.50,16.94" fill="#f49100"/>
<polygon points="88.01,76.87 76.02,101.17 116.99,67.37" fill="#f4f4f4"/>
<polygon points="113.50,16.94 114.05,19.03 113.50,20.70" fill="#d98200"/>
<polygon points="113.50,16.94 117.11,15.25 115.78,16.43" fill="#f49100"/>
<polygon points="114.05,17.23 113.07,17.25 114.05,19.03" fill="#3d4d57"/>
<polygon points="114.05,17.23 115.78,16.43 114.98,15.34" fill="#445661"/>
<polygon points="113.07,17.25 114.05,17.23 113.07,15.97" fill="#3d4d57"/>
<polygon points="114.98,15.34 113.07,15.97 114.05,17.23" fill="#445661"/>
<polygon points="115.78,18.22 115.78,16.43 117.11,15.25" fill="#e98b00"/>
<polygon points="122.67,56.67 131.40,59.32 132.50,66.12" fill="#f3f3f3"/>
<polygon points="146.16,86.12 146.16,68.73 132.50,66.12" fill="#f7f7f7"/>
<polygon points="117.11,19.01 113.50,20.70 114.05,19.03" fill="#cd7a00"/>
<polygon points="117.11,15.25 117.11,19.01 115.78,18.22" fill="#e98b00"/>
<polygon points="114.98,16.61 114.05,19.03 113.07,17.25" fill="#42535e"/>
<polygon points="114.05,19.03 114.98,16.61 115.78,18.22" fill="#42535d"/>
<polygon points="114.05,19.03 115.78,18.22 117.11,19.01" fill="#cd7a00"/>
<polygon points="115.78,16.43 115.78,18.22 114.98,16.61" fill="#3d4d56"/>
<polygon points="114.98,16.61 114.98,15.34 115.78,16.43" fill="#3d4d56"/>
<polygon points="121.10,196.44 61.73,172.83 99.91,191.04" fill="#fbfbfb"/>
<polygon points="113.07,15.97 112.09,15.22 113.07,17.25" fill="#3d4d57"/>
<polygon points="113.07,15.97 114.98,15.34 114.19,14.00" fill="#43545f"/>
<polygon points="112.09,15.22 113.07,15.97 112.09,14.46" fill="#3d4d57"/>
<polygon points="114.19,14.00 112.09,14.46 113.07,15.97" fill="#43555f"/>
<polygon points="132.50,66.12 115.57,60.97 122.67,56.67" fill="#f3f3f3"/>
<polygon points="113.07,17.25 114.19,14.76 114.98,16.61" fill="#40515b"/>
<polygon points="114.19,14.76 113.07,17.25 112.09,15.22" fill="#41515c"/>
<polygon points="114.98,15.34 114.98,16.61 114.19,14.76" fill="#3d4d56"/>
<polygon points="114.19,14.76 114.19,14.00 114.98,15.34" fill="#3d4d56"/>
<polygon points="114.19,14.76 112.09,15.22 112.09,14.46" fill="#41525c"/>
<polygon points="112.09,14.46 114.19,14.00 114.19,14.76" fill="#41525c"/>
<polygon points="121.10,173.28 155.18,197.47 121.10,196.44" fill="#fafafa"/>
<polygon points="155.18,174.31 189.25,198.50 155.18,197.47" fill="#fafafa"/>
<polygon points="116.99,67.37 115.57,60.97 88.01,76.87" fill="#f0f0f0"/>
<polygon points="182.97,75.77 146.16,68.73 146.16,86.12" fill="#fcfcfc"/>
<polygon points="115.57,60.97 132.50,66.12 146.16,68.73" fill="#fdfdfd"/>
<polygon points="182.97,75.77 182.97,98.18 230.29,168.81" fill="#e4e4e4"/>
<polygon points="88.01,76.87 55.50,159.22 76.02,101.17" fill="#e1e1e1"/>
<polygon points="99.91,191.04 121.10,173.28 121.10,196.44" fill="#f8f8f8"/>
<polygon points="49.20,196.80 99.91,191.04 61.73,172.83" fill="#f1f1f1"/>
<polygon points="146.16,68.73 88.01,76.87 115.57,60.97" fill="#f9f9f9"/>
<polygon points="155.18,197.47 121.10,173.28 155.18,174.31" fill="#fafafa"/>
<polygon points="189.25,198.50 155.18,174.31 189.25,175.34" fill="#fafafa"/>
<polygon points="189.25,198.50 230.29,186.57 226.14,192.81" fill="#f3f3f3"/>
<polygon points="230.29,186.57 189.25,198.50 189.25,175.34" fill="#f8f8f8"/>
<polygon points="46.86,187.43 61.73,172.83 55.50,159.22" fill="#d1d1d1"/>
<polygon points="61.73,172.83 46.86,187.43 49.20,196.80" fill="#d8d8d8"/>
<polygon points="41.53,180.28 49.97,181.99 49.85,178.55" fill="#e73e31"/>
<polygon points="49.85,178.55 41.41,176.85 41.53,180.28" fill="#e73e31"/>
<polygon points="99.91,191.04 49.20,196.80 96.68,205.26" fill="#f5f5f5"/>
<polygon points="35.74,180.83 41.53,180.28 41.41,176.85" fill="#dd3b2f"/>
<polygon points="41.53,180.28 35.74,180.83 35.86,184.26" fill="#dd3b2f"/>
<polygon points="121.10,173.28 99.91,191.04 105.62,177.43" fill="#f7f7f7"/>
<polygon points="41.53,180.28 55.91,196.15 49.97,181.99" fill="#eb3f32"/>
<polygon points="226.14,175.05 226.14,192.81 230.29,186.57" fill="#d6d6d6"/>
<polygon points="230.29,186.57 230.29,168.81 226.14,175.05" fill="#d6d6d6"/>
<polygon points="35.86,184.26 48.85,197.28 41.53,180.28" fill="#eb3f32"/>
<polygon points="49.85,178.55 49.97,181.99 55.91,196.15" fill="#cf372c"/>
<polygon points="230.29,168.81 226.14,160.02 182.97,75.77" fill="#e5e5e5"/>
<polygon points="55.50,159.22 88.01,76.87 61.73,145.61" fill="#e1e1e1"/>
<polygon points="99.91,191.04 96.68,205.26 102.38,195.89" fill="#e1e1e1"/>
<polygon points="41.41,176.85 49.85,178.55 56.15,193.71" fill="#e93e31"/>
<polygon points="102.38,195.89 105.62,177.43 99.91,191.04" fill="#dadada"/>
<polygon points="35.74,180.83 41.41,176.85 49.09,194.85" fill="#e93e31"/>
<polygon points="42.03,195.98 35.86,184.26 35.74,180.83" fill="#d0382c"/>
<polygon points="49.65,223.03 96.68,205.26 49.20,196.80" fill="#eaeaea"/>
<polygon points="55.91,196.15 41.53,180.28 48.85,197.28" fill="#eb3f32"/>
<polygon points="56.45,210.55 56.45,213.63 59.05,211.45" fill="#1d1d1d"/>
<polygon points="53.84,211.45 56.45,213.63 56.45,210.55" fill="#1d1d1d"/>
<polygon points="61.73,145.61 46.86,187.43 55.50,159.22" fill="#dfdfdf"/>
<polygon points="52.76,213.63 56.45,213.63 53.84,211.45" fill="#1d1d1d"/>
<polygon points="59.05,211.45 56.45,213.63 60.13,213.63" fill="#1d1d1d"/>
<polygon points="226.14,160.02 230.29,168.81 230.29,186.57" fill="#d6d6d6"/>
<polygon points="53.84,211.45 56.45,210.55 56.45,207.24" fill="#1e1e1e"/>
<polygon points="56.45,210.55 59.05,211.45 59.05,208.14" fill="#1e1e1e"/>
<polygon points="55.91,196.15 56.15,193.71 49.85,178.55" fill="#cc362b"/>
<polygon points="53.84,215.81 56.45,213.63 52.76,213.63" fill="#1d1d1d"/>
<polygon points="60.13,213.63 56.45,213.63 59.05,215.81" fill="#1d1d1d"/>
<polygon points="48.85,197.28 35.86,184.26 41.79,198.42" fill="#eb3f32"/>
<polygon points="56.15,193.71 49.09,194.85 41.41,176.85" fill="#e93e31"/>
<polygon points="40.19,196.93 49.65,223.03 49.20,196.80" fill="#e0e0e0"/>
<polygon points="56.45,216.71 56.45,213.63 53.84,215.81" fill="#1d1d1d"/>
<polygon points="59.05,215.81 56.45,213.63 56.45,216.71" fill="#1d1d1d"/>
<polygon points="53.84,211.45 52.76,210.32 52.76,213.63" fill="#1b1b1b"/>
<polygon points="59.05,211.45 60.13,213.63 60.13,210.32" fill="#1b1b1b"/>
<polygon points="40.19,194.19 49.20,196.80 46.86,187.43" fill="#e6e6e6"/>
<polygon points="49.20,196.80 40.19,194.19 40.19,196.93" fill="#eeeeee"/>
<polygon points="59.05,208.14 56.45,207.24 56.45,210.55" fill="#1e1e1e"/>
<polygon points="35.86,184.26 42.03,195.98 41.79,198.42" fill="#cb362b"/>
<polygon points="155.18,143.50 146.16,68.73 182.97,75.77" fill="#eaeaea"/>
<polygon points="56.45,207.24 53.84,208.14 53.84,211.45" fill="#1e1e1e"/>
<polygon points="52.76,210.32 53.84,211.45 53.84,208.14" fill="#1b1b1b"/>
<polygon points="60.13,210.32 59.05,208.14 59.05,211.45" fill="#1b1b1b"/>
<polygon points="52.76,213.63 53.84,212.49 53.84,215.81" fill="#1b1b1b"/>
<polygon points="60.13,213.63 59.05,215.81 59.05,212.49" fill="#1b1b1b"/>
<polygon points="121.10,142.47 88.01,76.87 146.16,68.73" fill="#eaeaea"/>
<polygon points="41.53,166.06 41.41,167.97 49.85,170.40" fill="#ef4033"/>
<polygon points="49.09,194.85 42.03,195.98 35.74,180.83" fill="#e93e31"/>
<polygon points="56.45,216.71 59.05,212.49 59.05,215.81" fill="#1e1e1e"/>
<polygon points="41.53,166.06 35.74,173.68 41.41,167.97" fill="#e53d30"/>
<polygon points="53.84,215.81 56.45,213.39 56.45,216.71" fill="#1e1e1e"/>
<polygon points="53.84,212.49 52.76,213.63 52.76,210.32" fill="#1b1b1b"/>
<polygon points="59.05,212.49 60.13,210.32 60.13,213.63" fill="#1b1b1b"/>
<polygon points="99.91,163.82 121.10,173.28 105.62,177.43" fill="#f4f4f4"/>
<polygon points="49.09,193.53 49.85,170.40 41.41,167.97" fill="#d5392d"/>
<polygon points="49.85,170.40 49.97,168.50 41.53,166.06" fill="#ef4033"/>
<polygon points="56.45,213.39 53.84,215.81 53.84,212.49" fill="#1e1e1e"/>
<polygon points="42.03,195.17 41.41,167.97 35.74,173.68" fill="#d5392d"/>
<polygon points="96.68,205.26 76.90,230.08 94.26,222.20" fill="#eaeaea"/>
<polygon points="59.05,212.49 56.45,216.71 56.45,213.39" fill="#1e1e1e"/>
<polygon points="99.91,163.82 61.73,145.61 88.01,76.87" fill="#dddddd"/>
<polygon points="76.90,230.08 96.68,205.26 49.65,223.03" fill="#eaeaea"/>
<polygon points="48.85,197.28 56.15,193.71 55.91,196.15" fill="#e63e31"/>
<polygon points="31.07,191.70 25.71,188.59 31.07,193.75" fill="#f18f00"/>
<polygon points="35.74,173.68 41.53,166.06 35.86,171.78" fill="#e53d30"/>
<polygon points="31.07,193.75 25.71,188.59 28.28,199.76" fill="#df8500"/>
<polygon points="31.07,193.75 40.19,196.93 40.19,194.19" fill="#f69200"/>
<polygon points="31.07,193.75 40.26,205.54 40.19,196.93" fill="#ea8b00"/>
<polygon points="56.15,193.71 48.85,197.28 49.09,194.85" fill="#e63e31"/>
<polygon points="40.19,194.19 31.07,191.70 31.07,193.75" fill="#f69200"/>
<polygon points="41.79,198.42 49.09,194.85 48.85,197.28" fill="#e63e31"/>
<polygon points="230.29,186.57 226.14,177.78 226.14,160.02" fill="#d6d6d6"/>
<polygon points="55.91,190.79 49.97,168.50 49.85,170.40" fill="#d1382c"/>
<polygon points="35.86,171.78 42.03,195.17 35.74,173.68" fill="#d1382c"/>
<polygon points="49.85,170.40 49.09,193.53 56.15,191.90" fill="#d5392d"/>
<polygon points="41.41,167.97 42.03,195.17 49.09,193.53" fill="#d5392d"/>
<polygon points="49.65,223.03 40.19,196.93 40.26,205.54" fill="#e0e0e0"/>
<polygon points="40.26,205.54 31.07,193.75 28.28,199.76" fill="#e98b00"/>
<polygon points="31.07,191.70 31.07,189.65 25.71,188.59" fill="#f18f00"/>
<polygon points="189.25,144.52 182.97,75.77 226.14,160.02" fill="#e6e6e6"/>
<polygon points="49.85,170.40 56.15,191.90 55.91,190.79" fill="#d3382d"/>
<polygon points="49.09,194.85 41.79,198.42 42.03,195.98" fill="#e63e31"/>
<polygon points="28.28,199.76 25.71,188.59 28.28,197.71" fill="#d88100"/>
<polygon points="121.10,173.28 155.18,143.50 155.18,174.31" fill="#f5f5f5"/>
<polygon points="48.85,192.42 41.53,166.06 49.97,168.50" fill="#d2382d"/>
<polygon points="99.91,163.82 105.62,177.43 102.38,195.89" fill="#cdcdcd"/>
<polygon points="31.07,189.65 31.07,191.70 40.19,194.19" fill="#f69200"/>
<polygon points="41.79,194.06 35.86,171.78 41.53,166.06" fill="#d3382d"/>
<polygon points="155.18,174.31 189.25,144.52 189.25,175.34" fill="#f5f5f5"/>
<polygon points="96.68,205.26 94.26,222.20 100.13,219.19" fill="#dddddd"/>
<polygon points="46.86,187.43 61.73,145.61 49.20,178.07" fill="#dfdfdf"/>
<polygon points="31.07,189.65 28.28,195.66 25.71,188.59" fill="#ee8e00"/>
<polygon points="28.28,195.66 28.28,197.71 25.71,188.59" fill="#d88100"/>
<polygon points="100.13,219.19 102.38,195.89 96.68,205.26" fill="#dadada"/>
<polygon points="42.03,195.17 35.86,171.78 41.79,194.06" fill="#d2382d"/>
<polygon points="49.20,178.07 40.19,194.19 46.86,187.43" fill="#ececec"/>
<polygon points="49.97,168.50 55.91,190.79 48.85,192.42" fill="#d2382d"/>
<polygon points="48.85,192.42 56.15,191.90 49.09,193.53" fill="#f04033"/>
<polygon points="40.19,194.19 40.19,191.45 31.07,189.65" fill="#f69200"/>
<polygon points="41.53,166.06 48.85,192.42 41.79,194.06" fill="#d3382d"/>
<polygon points="28.28,199.76 40.26,202.81 40.26,205.54" fill="#f39100"/>
<polygon points="41.79,194.06 49.09,193.53 42.03,195.17" fill="#f04033"/>
<polygon points="40.26,202.81 28.28,199.76 28.28,197.71" fill="#f39100"/>
<polygon points="56.15,191.90 48.85,192.42 55.91,190.79" fill="#f04033"/>
<polygon points="189.25,144.52 230.29,186.57 189.25,175.34" fill="#f3f3f3"/>
<polygon points="49.09,193.53 41.79,194.06 48.85,192.42" fill="#f04033"/>
<polygon points="40.24,197.89 40.24,201.33 42.58,205.63" fill="#d7392d"/>
<polygon points="28.28,195.66 31.07,189.65 40.19,191.45" fill="#ec8c00"/>
<polygon points="40.24,197.89 33.79,207.42 40.24,201.33" fill="#df3c2f"/>
<polygon points="28.28,195.66 40.26,202.81 28.28,197.71" fill="#f39100"/>
<polygon points="40.19,194.19 49.20,178.07 40.19,191.45" fill="#eeeeee"/>
<polygon points="40.24,201.33 35.64,213.18 42.58,205.63" fill="#e23c30"/>
<polygon points="88.01,76.87 121.10,142.47 99.91,163.82" fill="#d5d5d5"/>
<polygon points="35.64,213.18 40.24,201.33 33.79,207.42" fill="#e13c30"/>
<polygon points="40.26,205.54 49.65,220.01 49.65,223.03" fill="#e7e7e7"/>
<polygon points="76.90,230.08 100.13,219.19 94.26,222.20" fill="#fbfbfb"/>
<polygon points="42.58,205.63 42.58,202.19 40.24,197.89" fill="#d7392d"/>
<polygon points="40.19,191.45 40.26,200.07 28.28,195.66" fill="#ea8b00"/>
<polygon points="42.58,202.19 42.58,205.63 44.93,209.94" fill="#d7392d"/>
<polygon points="121.10,173.28 99.91,163.82 121.10,142.47" fill="#f3f3f3"/>
<polygon points="40.26,202.81 28.28,195.66 40.26,200.07" fill="#f39100"/>
<polygon points="33.79,207.42 40.24,197.89 33.79,205.08" fill="#df3c2f"/>
<polygon points="42.58,205.63 40.98,216.51 44.93,209.94" fill="#e23d30"/>
<polygon points="61.73,145.61 99.91,163.82 96.68,186.53" fill="#dcdcdc"/>
<polygon points="96.68,186.53 49.20,178.07 61.73,145.61" fill="#e1e1e1"/>
<polygon points="49.65,223.03 82.59,227.32 76.90,230.08" fill="#fcfcfc"/>
<polygon points="49.65,220.01 40.26,205.54 40.26,202.81" fill="#e0e0e0"/>
<polygon points="33.79,205.08 40.24,197.89 42.58,202.19" fill="#de3b2f"/>
<polygon points="226.14,160.02 226.14,177.78 189.25,144.52" fill="#e3e3e3"/>
<polygon points="40.98,216.51 42.58,205.63 35.64,213.18" fill="#e33d30"/>
<polygon points="102.38,195.89 96.68,186.53 99.91,163.82" fill="#cfcfcf"/>
<polygon points="146.16,68.73 155.18,143.50 121.10,142.47" fill="#eaeaea"/>
<polygon points="230.29,186.57 189.25,144.52 226.14,177.78" fill="#f5f5f5"/>
<polygon points="33.79,205.08 29.60,213.51 33.79,207.42" fill="#d93a2e"/>
<polygon points="44.93,209.94 44.93,206.49 42.58,202.19" fill="#d7392d"/>
<polygon points="44.93,206.49 44.93,209.94 47.28,214.24" fill="#d7392d"/>
<polygon points="182.97,75.77 189.25,144.52 155.18,143.50" fill="#ececec"/>
<polygon points="44.93,206.49 44.93,209.94 40.98,216.51" fill="#d7392e"/>
<polygon points="44.93,206.49 38.68,217.20 44.93,209.94" fill="#dc3b2f"/>
<polygon points="33.79,207.42 29.57,220.72 35.64,213.18" fill="#e13c30"/>
<polygon points="42.58,202.19 35.64,210.83 33.79,205.08" fill="#df3c2f"/>
<polygon points="44.93,209.94 42.07,222.71 47.28,214.24" fill="#e23c30"/>
<polygon points="40.26,200.07 49.65,220.01 40.26,202.81" fill="#e0e0e0"/>
<polygon points="96.68,186.53 102.38,195.89 100.13,219.19" fill="#d3d3d3"/>
<polygon points="29.57,220.72 33.79,207.42 29.60,213.51" fill="#e03c2f"/>
<polygon points="29.60,213.51 33.79,205.08 29.60,212.27" fill="#d93a2e"/>
<polygon points="35.64,210.83 42.58,202.19 44.93,206.49" fill="#df3c2f"/>
<polygon points="42.07,222.71 44.93,209.94 38.68,217.20" fill="#e23c30"/>
<polygon points="47.28,214.24 47.28,210.79 44.93,206.49" fill="#d7392d"/>
<polygon points="155.18,143.50 121.10,173.28 121.10,142.47" fill="#f5f5f5"/>
<polygon points="47.28,210.79 47.28,214.24 49.62,218.54" fill="#d7392d"/>
<polygon points="29.60,212.27 33.79,205.08 35.64,210.83" fill="#de3b2f"/>
<polygon points="82.59,227.32 49.65,223.03 49.65,220.01" fill="#fdfdfd"/>
<polygon points="189.25,144.52 155.18,174.31 155.18,143.50" fill="#f5f5f5"/>
<polygon points="40.98,216.51 40.98,214.17 44.93,206.49" fill="#d7392e"/>
<polygon points="35.64,213.18 33.90,223.09 40.98,216.51" fill="#e33d30"/>
<polygon points="47.28,214.24 47.42,225.80 49.62,218.54" fill="#e33d30"/>
<polygon points="38.68,217.20 44.93,206.49 38.68,214.86" fill="#dc3b2f"/>
<polygon points="29.60,212.27 29.57,220.72 29.60,213.51" fill="#c5352a"/>
<polygon points="49.65,204.29 40.19,191.45 49.20,178.07" fill="#dfdfdf"/>
<polygon points="40.19,191.45 49.65,204.29 40.26,200.07" fill="#dfdfdf"/>
<polygon points="44.93,206.49 40.98,214.17 35.64,210.83" fill="#dd3b2f"/>
<polygon points="100.13,219.19 76.90,230.08 82.59,227.32" fill="#fbfbfb"/>
<polygon points="38.68,214.86 44.93,206.49 47.28,210.79" fill="#df3c2f"/>
<polygon points="49.62,215.09 49.62,218.54 57.86,220.37" fill="#ec3f32"/>
<polygon points="33.90,223.09 35.64,213.18 29.57,220.72" fill="#e33d30"/>
<polygon points="47.42,225.80 47.28,214.24 42.07,222.71" fill="#e33d30"/>
<polygon points="49.62,218.54 49.62,215.09 47.28,210.79" fill="#d7392d"/>
<polygon points="35.64,210.83 29.57,219.47 29.60,212.27" fill="#e03c2f"/>
<polygon points="40.98,214.17 40.98,216.51 33.90,223.09" fill="#e03c2f"/>
<polygon points="49.62,218.54 57.06,229.97 57.86,220.37" fill="#e33d30"/>
<polygon points="57.86,216.92 57.86,220.37 66.10,222.20" fill="#ec3f32"/>
<polygon points="29.57,219.47 35.64,210.83 40.98,214.17" fill="#dd3b2f"/>
<polygon points="29.57,220.72 29.60,212.27 29.57,219.47" fill="#c5352a"/>
<polygon points="38.68,214.86 35.20,224.47 38.68,217.20" fill="#d4392d"/>
<polygon points="49.62,215.09 49.62,218.54 47.42,225.80" fill="#cf372c"/>
<polygon points="49.62,215.09 45.72,225.96 49.62,218.54" fill="#d5392d"/>
<polygon points="56.45,190.57 56.45,193.88 59.05,194.78" fill="#1e1e1e"/>
<polygon points="53.84,191.47 53.84,194.78 56.45,193.88" fill="#1e1e1e"/>
<polygon points="57.86,220.37 57.86,216.92 49.62,215.09" fill="#ec3f32"/>
<polygon points="57.86,220.37 68.41,231.26 66.10,222.20" fill="#e33d30"/>
<polygon points="66.10,218.75 66.10,222.20 74.33,224.02" fill="#ec3f32"/>
<polygon points="47.28,210.79 42.07,220.36 38.68,214.86" fill="#de3b2f"/>
<polygon points="53.84,191.47 52.76,196.96 53.84,194.78" fill="#1b1b1b"/>
<polygon points="59.05,191.47 59.05,194.78 60.13,196.96" fill="#1b1b1b"/>
<polygon points="57.06,229.97 49.62,218.54 45.72,225.96" fill="#e43d30"/>
<polygon points="49.20,178.07 96.68,186.53 94.26,203.46" fill="#eaeaea"/>
<polygon points="29.57,219.47 33.90,223.09 29.57,220.72" fill="#e73e31"/>
<polygon points="38.68,217.20 36.87,231.18 42.07,222.71" fill="#e23c30"/>
<polygon points="42.07,220.36 47.28,210.79 49.62,215.09" fill="#de3b2f"/>
<polygon points="33.90,223.09 33.90,221.85 40.98,214.17" fill="#e03c2f"/>
<polygon points="40.98,214.17 33.90,221.85 29.57,219.47" fill="#dd3b2f"/>
<polygon points="66.10,222.20 66.10,218.75 57.86,216.92" fill="#ec3f32"/>
<polygon points="66.10,222.20 75.64,233.01 74.33,224.02" fill="#e43d30"/>
<polygon points="56.45,193.88 56.45,190.57 53.84,191.47" fill="#1e1e1e"/>
<polygon points="49.65,220.01 40.26,200.07 49.65,204.29" fill="#dcdcdc"/>
<polygon points="74.33,220.58 74.33,224.02 82.57,225.85" fill="#ec3f32"/>
<polygon points="59.05,194.78 59.05,191.47 56.45,190.57" fill="#1e1e1e"/>
<polygon points="36.87,231.18 38.68,217.20 35.20,224.47" fill="#e13c30"/>
<polygon points="33.90,223.09 29.57,219.47 33.90,221.85" fill="#e73e31"/>
<polygon points="74.33,224.02 86.45,231.95 82.57,225.85" fill="#e63d31"/>
<polygon points="35.20,224.47 38.68,214.86 35.20,223.22" fill="#d4392d"/>
<polygon points="52.76,193.65 53.84,199.14 52.76,196.96" fill="#1b1b1b"/>
<polygon points="60.13,193.65 60.13,196.96 59.05,199.14" fill="#1b1b1b"/>
<polygon points="68.41,231.26 57.86,220.37 57.06,229.97" fill="#e33d30"/>
<polygon points="66.10,218.75 66.10,222.20 68.41,231.26" fill="#cd372c"/>
<polygon points="66.10,218.75 66.90,231.37 66.10,222.20" fill="#c8352a"/>
<polygon points="35.20,223.22 38.68,214.86 42.07,220.36" fill="#de3b2f"/>
<polygon points="74.33,224.02 74.33,220.58 66.10,218.75" fill="#ec3f32"/>
<polygon points="47.42,225.80 47.42,223.45 49.62,215.09" fill="#cf372c"/>
<polygon points="42.07,222.71 43.46,231.58 47.42,225.80" fill="#e33d30"/>
<polygon points="52.76,196.96 53.84,191.47 52.76,193.65" fill="#1b1b1b"/>
<polygon points="60.13,196.96 60.13,193.65 59.05,191.47" fill="#1b1b1b"/>
<polygon points="45.72,225.96 49.62,215.09 45.72,223.62" fill="#d5392d"/>
<polygon points="45.72,223.62 49.62,215.09 57.86,216.92" fill="#dd3b2f"/>
<polygon points="100.13,219.19 94.26,203.46 96.68,186.53" fill="#d3d3d3"/>
<polygon points="53.84,195.82 56.45,200.04 53.84,199.14" fill="#1e1e1e"/>
<polygon points="49.62,215.09 47.42,223.45 42.07,220.36" fill="#dc3b2f"/>
<polygon points="56.45,196.72 59.05,199.14 56.45,200.04" fill="#1e1e1e"/>
<polygon points="75.64,233.01 66.10,222.20 66.90,231.37" fill="#e43d30"/>
<polygon points="82.57,225.85 82.57,222.40 74.33,220.58" fill="#ec3f32"/>
<polygon points="56.45,190.57 59.05,191.47 56.45,193.65" fill="#1d1d1d"/>
<polygon points="53.84,191.47 56.45,190.57 56.45,193.65" fill="#1d1d1d"/>
<polygon points="86.45,231.95 74.33,224.02 75.64,233.01" fill="#e43d30"/>
<polygon points="82.57,222.40 82.57,225.85 86.45,231.95" fill="#d83a2e"/>
<polygon points="53.84,199.14 52.76,193.65 53.84,195.82" fill="#1b1b1b"/>
<polygon points="59.05,199.14 59.05,195.82 60.13,193.65" fill="#1b1b1b"/>
<polygon points="43.46,231.58 42.07,222.71 36.87,231.18" fill="#e33d30"/>
<polygon points="35.20,223.22 36.87,231.18 35.20,224.47" fill="#ce372c"/>
<polygon points="52.76,193.65 53.84,191.47 56.45,193.65" fill="#1d1d1d"/>
<polygon points="59.05,191.47 60.13,193.65 56.45,193.65" fill="#1d1d1d"/>
<polygon points="47.42,223.45 47.42,225.80 43.46,231.58" fill="#d93a2e"/>
<polygon points="57.06,227.62 57.86,216.92 66.10,218.75" fill="#dd3b2f"/>
<polygon points="59.05,199.14 56.45,196.72 59.05,195.82" fill="#1e1e1e"/>
<polygon points="56.45,200.04 53.84,195.82 56.45,196.72" fill="#1e1e1e"/>
<polygon points="45.72,223.62 45.84,233.39 45.72,225.96" fill="#c5352a"/>
<polygon points="57.86,216.92 57.06,227.62 45.72,223.62" fill="#dd3b2f"/>
<polygon points="42.07,220.36 36.87,229.93 35.20,223.22" fill="#df3c2f"/>
<polygon points="53.84,195.82 52.76,193.65 56.45,193.65" fill="#1d1d1d"/>
<polygon points="60.13,193.65 59.05,195.82 56.45,193.65" fill="#1d1d1d"/>
<polygon points="49.65,204.29 82.59,227.32 49.65,220.01" fill="#e9e9e9"/>
<polygon points="36.87,229.93 42.07,220.36 47.42,223.45" fill="#dd3b2f"/>
<polygon points="66.90,229.02 66.10,218.75 74.33,220.58" fill="#dd3b2f"/>
<polygon points="68.41,231.26 68.41,228.92 66.10,218.75" fill="#cd372c"/>
<polygon points="66.90,231.37 66.10,218.75 66.90,229.02" fill="#c8352a"/>
<polygon points="45.72,225.96 56.27,239.56 57.06,229.97" fill="#e33d30"/>
<polygon points="56.45,196.72 53.84,195.82 56.45,193.65" fill="#1d1d1d"/>
<polygon points="59.05,195.82 56.45,196.72 56.45,193.65" fill="#1d1d1d"/>
<polygon points="94.26,203.46 76.90,211.35 49.20,178.07" fill="#eaeaea"/>
<polygon points="36.87,231.18 35.20,223.22 36.87,229.93" fill="#ce372c"/>
<polygon points="76.90,211.35 49.65,204.29 49.20,178.07" fill="#eaeaea"/>
<polygon points="66.10,218.75 68.41,228.92 57.06,227.62" fill="#dc3b2f"/>
<polygon points="43.46,231.58 43.46,230.33 47.42,223.45" fill="#d93a2e"/>
<polygon points="76.90,211.35 100.13,219.19 82.59,227.32" fill="#e1e1e1"/>
<polygon points="75.64,230.66 74.33,220.58 82.57,222.40" fill="#dd3b2f"/>
<polygon points="86.45,231.95 86.45,229.60 82.57,222.40" fill="#d83a2e"/>
<polygon points="36.87,229.93 43.46,231.58 36.87,231.18" fill="#ed3f32"/>
<polygon points="57.06,229.97 66.69,240.33 68.41,231.26" fill="#e33d30"/>
<polygon points="56.27,239.56 45.72,225.96 45.84,233.39" fill="#e43d30"/>
<polygon points="47.42,223.45 43.46,230.33 36.87,229.93" fill="#da3a2e"/>
<polygon points="45.84,232.14 45.72,223.62 57.06,227.62" fill="#dc3b2f"/>
<polygon points="45.84,233.39 45.72,223.62 45.84,232.14" fill="#c5352a"/>
<polygon points="75.64,233.01 86.17,238.05 86.45,231.95" fill="#e53d31"/>
<polygon points="43.46,231.58 36.87,229.93 43.46,230.33" fill="#ed3f32"/>
<polygon points="74.33,220.58 75.64,230.66 66.90,229.02" fill="#dd3b2f"/>
<polygon points="100.13,219.19 76.90,211.35 94.26,203.46" fill="#e1e1e1"/>
<polygon points="82.57,222.40 86.45,229.60 75.64,230.66" fill="#db3b2f"/>
<polygon points="66.90,231.37 76.94,242.00 75.64,233.01" fill="#e43d30"/>
<polygon points="68.41,228.92 68.41,231.26 66.69,240.33" fill="#cb362b"/>
<polygon points="86.45,229.60 86.45,231.95 86.17,238.05" fill="#c6352a"/>
<polygon points="66.90,229.02 67.71,240.54 66.90,231.37" fill="#c8352a"/>
<polygon points="66.69,240.33 57.06,229.97 56.27,239.56" fill="#e33d30"/>
<polygon points="45.84,232.14 56.27,239.56 45.84,233.39" fill="#e73e31"/>
<polygon points="56.27,238.32 57.06,227.62 68.41,228.92" fill="#dd3b2f"/>
<polygon points="82.59,227.32 49.65,204.29 76.90,211.35" fill="#ebebeb"/>
<polygon points="86.17,238.05 75.64,233.01 76.94,242.00" fill="#e33d30"/>
<polygon points="57.06,227.62 56.27,238.32 45.84,232.14" fill="#dd3b2f"/>
<polygon points="76.94,242.00 66.90,231.37 67.71,240.54" fill="#e43d30"/>
<polygon points="86.17,238.05 86.17,236.80 86.45,229.60" fill="#c6352a"/>
<polygon points="67.71,239.30 66.90,229.02 75.64,230.66" fill="#dd3b2f"/>
<polygon points="66.69,240.33 66.69,239.08 68.41,228.92" fill="#cb362b"/>
<polygon points="76.94,240.75 75.64,230.66 86.45,229.60" fill="#dd3b2f"/>
<polygon points="56.27,239.56 45.84,232.14 56.27,238.32" fill="#e73e31"/>
<polygon points="67.71,240.54 66.90,229.02 67.71,239.30" fill="#c8352a"/>
<polygon points="68.41,228.92 66.69,239.08 56.27,238.32" fill="#dc3b2f"/>
<polygon points="56.27,238.32 66.69,240.33 56.27,239.56" fill="#ed3f32"/>
<polygon points="86.45,229.60 86.17,236.80 76.94,240.75" fill="#db3b2e"/>
<polygon points="86.17,238.05 76.94,240.75 86.17,236.80" fill="#e93e31"/>
<polygon points="66.69,240.33 56.27,238.32 66.69,239.08" fill="#ed3f32"/>
<polygon points="75.64,230.66 76.94,240.75 67.71,239.30" fill="#dd3b2f"/>
<polygon points="76.94,240.75 86.17,238.05 76.94,242.00" fill="#e93e31"/>
<polygon points="67.71,239.30 76.94,242.00 67.71,240.54" fill="#ed3f32"/>
<polygon points="76.94,242.00 67.71,239.30 76.94,240.75" fill="#ed3f32"/>
</svg>